<svg xmlns="http://www.w3.org/2000/svg" viewBox="0 0 52 52"><path d="M22.147 45.765c2.992-.507 5.805-.1 8.79.015 1.458.056 3.093-.29 4.505-.062 1.1.18 5.192 1.843 4.267 2.929-1.874 2.2-10.247.122-12.912-.01-4.198-.207-9.69 1.11-13.703.006-.634-.174-.799 1.005-.876.212-.123-1.26 2.198-1.986 3.024-2.35 2.475-1.086 5.005-1.313 7.672-1.148 1.606.099 1.6-2.401 0-2.5-4.981-.308-13.057.521-13.605 6.79-.05.567.428 1.035.917 1.205 2.5.865 5.661.281 8.28.272 3.229-.012 6.505-.165 9.727.11 3.138.267 6.138.573 9.305.397 1.152-.064 3.756.26 4.69-.86 1.727-2.074.252-6.01-1.966-7.001-2.533-1.133-5.767-.418-8.405-.467-3.56-.067-6.837-.548-10.374.051-1.583.268-.912 2.678.664 2.41z"/><path d="M17.533 43.915c-.168-3.525 6.628-3.436 8.787-3.664 3.73-.393 6.721.154 9.056 3.174.982 1.27 2.74-.51 1.768-1.768-3.52-4.554-8.36-4.159-13.643-3.675-3.547.325-8.677 1.553-8.468 5.933.076 1.601 2.576 1.61 2.5 0zM8.52 6.017c2.29 3.393 11.05 21.28.947 20.916-9.41-.338-1.034-17.145.585-21.036.617-1.483-1.8-2.13-2.411-.664-2.144 5.152-5.837 11.687-4.923 17.35.786 4.866 1.902 7.657 7.413 6.761 12.288-1.998 4.927-18.1.547-24.588-.895-1.327-3.062-.077-2.158 1.261z"/><path d="M14.653 20.768c-3.154-.414-6.217-.77-9.406-.541-1.596.114-1.608 2.615 0 2.5 3.188-.229 6.252.127 9.406.541 1.59.21 1.575-2.293 0-2.5zM41.99 5.476c0 5.568 10.944 17.245 2.717 20.87-2.366 1.043-4.904.25-6.038-2.054-1.151-2.34-.025-4.275.719-6.436L43.7 5.326c.525-1.525-1.89-2.18-2.41-.665l-4.027 11.695c-.68 1.976-1.819 4.133-1.666 6.263.312 4.346 3.329 6.91 7.415 6.517 3.901-.376 6.535-1.54 6.886-5.687.215-2.53-.393-5.416-1.109-7.833-1.036-3.499-4.3-6.404-4.3-10.14 0-1.609-2.5-1.611-2.5 0z"/><path d="M48.16 20.11c-1.31-.54-2.477-.267-3.807.055-1.74.421-3.485.41-5.263.375-1.61-.032-1.61 2.468 0 2.5 1.393.028 2.782.046 4.167-.132 1.357-.173 2.93-.927 4.24-.387 1.485.613 2.133-1.805.664-2.41zM26.59 39.049c1.608 0 1.61-2.5 0-2.5s-1.612 2.5 0 2.5zM24.63 3.26c.432-.694 1.994-.182 2.624-.385.49.106.556.018.2-.264.063.257.1.517.111.78.03.505-.005 1.032-.193 1.507-.299.752-1.043 1.514-1.925 1.28-.971-.256-.842-1.373-.674-2.141.341-1.569-2.068-2.239-2.41-.665-.444 2.034-.07 4.345 2.136 5.126 2.096.743 4.242-.539 5.097-2.477.68-1.541.999-4.98-1.137-5.55-1.066-.286-2.445-.114-3.524.045-1.042.155-1.896.57-2.464 1.483-.853 1.37 1.309 2.626 2.159 1.261z"/><path d="M49.163 3.063c-6.529.397-13.047.42-19.578.07-1.608-.086-1.603 2.414 0 2.5 6.53.35 13.05.327 19.578-.07 1.598-.097 1.61-2.597 0-2.5zM2.84 5.437c6.416.19 12.831.252 19.25.184 1.607-.017 1.611-2.517 0-2.5a478.77 478.77 0 01-19.25-.184c-1.609-.048-1.607 2.452 0 2.5zM27.603 37.379c-.336-9.89-.327-19.773.029-29.662.057-1.609-2.443-1.606-2.5 0a423.753 423.753 0 00-.029 29.662c.055 1.604 2.555 1.612 2.5 0z"/></svg>